<?xml version="1.0" encoding="UTF-8"?>
<!DOCTYPE svg PUBLIC "-//W3C//DTD SVG 1.1//EN" "http://www.w3.org/Graphics/SVG/1.1/DTD/svg11.dtd">
<svg version="1.1" xmlns="http://www.w3.org/2000/svg" xmlns:xlink="http://www.w3.org/1999/xlink" x="0" y="0" width="48" height="48" viewBox="0, 0, 48, 48">
  <g id="Image">
    <path d="M0,-0 L48,-0 L48,48 L0,48 L0,-0 z" fill="#EAE2D7"/>
    <path d="M32.743,4.436 C33.429,4.301 34.139,4.497 34.659,4.965 C35.221,5.426 35.553,6.111 35.565,6.839 C35.528,7.581 35.163,8.269 34.57,8.717 L31.023,11.558 C30.79,11.72 30.638,11.975 30.608,12.257 C30.563,12.502 30.629,12.755 30.788,12.947 C33.395,15.894 33.931,20.138 32.139,23.641 C29.874,28.176 24.822,30.125 19.949,28.398 C19.687,28.305 19.403,28.299 19.138,28.382 C18.774,28.497 18.645,28.673 18.402,29.004 L18.378,29.036 L16.849,31.076 C16.849,31.076 15.563,32.677 17.592,32.595 C22.512,32.402 23.796,32.402 26.432,32.579 C30.725,32.872 32.617,35.671 32.617,37.902 C32.617,40.54 30.934,43.399 26.427,43.399 C23.032,43.315 20.972,43.294 17.46,43.35 C16.958,43.359 16.49,43.372 16.103,43.383 L16.102,43.383 C15.733,43.393 15.437,43.402 15.257,43.402 C14.101,43.402 12.58,43.099 12.561,41.665 C12.547,40.482 13.575,39.845 14.365,39.761 C15.063,39.687 15.689,39.772 16.378,39.865 L16.378,39.865 L16.378,39.865 L16.378,39.865 L16.378,39.865 L16.379,39.865 C16.789,39.92 17.221,39.979 17.704,40.008 C18.005,40.027 18.299,40.048 18.601,40.07 L18.601,40.07 L18.601,40.07 L18.601,40.07 L18.601,40.07 C19.464,40.132 20.391,40.199 21.731,40.211 C22.426,40.22 22.965,40.229 23.397,40.236 C24.527,40.255 24.927,40.262 25.479,40.211 C27.506,40.029 28.455,39.218 28.455,37.974 C28.455,36.666 27.506,35.921 25.695,35.676 C23.153,35.331 21.908,35.411 19.649,35.556 C18.889,35.605 18.015,35.661 16.938,35.711 C15.949,35.758 12.957,35.753 12.577,33.285 C12.491,32.609 12.458,31.472 13.889,29.507 L15.108,27.876 C15.693,27.079 16.054,26.417 15.194,25.343 C15.194,25.343 14.56,24.583 14.348,24.306 C12.374,21.726 11.892,17.675 13.621,14.368 C16.185,9.474 22.398,7.445 27.224,10.173 C27.637,10.407 27.937,10.505 28.289,10.439 C28.616,10.386 28.729,10.168 28.879,9.879 C28.913,9.814 28.948,9.746 28.988,9.675 C28.995,9.659 29.381,8.92 29.858,8.004 L29.858,8.004 L29.858,8.003 C30.247,7.257 30.696,6.395 31.051,5.713 C31.389,5.05 32.013,4.58 32.743,4.436 z M19.492,25.918 C22.505,27.387 25.849,26.256 28.031,21.903 C30.228,17.517 29.375,13.597 26.339,12.115 C22.295,10.143 18.869,13.872 17.581,16.436 C15.378,20.822 16.415,24.378 19.445,25.893 L19.492,25.918 z" fill="#1E1916" id="goodreads_logo"/>
  </g>
</svg>
